<mxfile host="app.diagrams.net" modified="2023-12-30T15:30:50.520Z" agent="Mozilla/5.0 (Windows NT 10.0; Win64; x64) AppleWebKit/537.36 (KHTML, like Gecko) Chrome/120.0.0.0 Safari/537.36" version="22.1.16" etag="Q2g0zBg-pzenTjkGt0YV" type="github">
  <diagram name="Page-1" id="eLXvVbqI80yyEbjv6FfF">
    <mxGraphModel>
      <root>
        <mxCell id="0" />
        <mxCell id="1" parent="0" />
      </root>
    </mxGraphModel>
  </diagram>
</mxfile>
